<svg xmlns="http://www.w3.org/2000/svg" width="302" height="222.806" viewBox="0 0 302 222.806">
  <g id="Grupo_652" data-name="Grupo 652" transform="translate(-1173 -1427.194)">
    <text id="LOOK_FEEL_DIGITAL" data-name="LOOK&amp;FEEL DIGITAL" transform="translate(1324 1644)" font-size="25" font-family="Montserrat-Medium, Montserrat" font-weight="500" letter-spacing="0.09em"><tspan x="-150" y="0">LOOK&amp;FEEL DIGITAL</tspan></text>
    <g id="icon-look_feel" data-name="icon-look&amp;feel" transform="translate(730.25 1315.21)">
      <g id="Grupo_655" data-name="Grupo 655" transform="translate(520 168.181)">
        <path id="Trazado_58" data-name="Trazado 58" d="M523,204.926V145.171A7.17,7.17,0,0,1,530.171,138" transform="translate(-515.829 -138)" fill="none" stroke="#000" stroke-linecap="square" stroke-linejoin="round" stroke-width="6"/>
        <path id="Trazado_59" data-name="Trazado 59" d="M583.171,204.926V145.171A7.17,7.17,0,0,0,576,138" transform="translate(-442.842 -138)" fill="none" stroke="#000" stroke-linecap="square" stroke-linejoin="round" stroke-width="6"/>
        <path id="Trazado_60" data-name="Trazado 60" d="M650.846,187.731H536.653A16.692,16.692,0,0,1,520,171h59.475v4.78h28.548V171H667.5A16.692,16.692,0,0,1,650.846,187.731Z" transform="translate(-520 -92.123)" fill="none" stroke="#000" stroke-linecap="round" stroke-linejoin="round" stroke-width="6"/>
      </g>
      <g id="Grupo_656" data-name="Grupo 656" transform="translate(553.089 115.789)">
        <path id="Trazado_61" data-name="Trazado 61" d="M552.115,215.631H534l33.966-95.1h18.115l33.966,95.1h-20.38l-9.058-24.908H563.437" transform="translate(-534 -109.204)" fill="none" stroke="#000" stroke-linecap="round" stroke-linejoin="round" stroke-width="6"/>
        <line id="Línea_79" data-name="Línea 79" y1="120.013" x2="40.759" transform="translate(15.851)" fill="none" stroke="#000" stroke-linecap="round" stroke-linejoin="round" stroke-width="6"/>
        <line id="Línea_80" data-name="Línea 80" x2="9.089" y2="26.787" transform="translate(43.401 38.893)" fill="none" stroke="#000" stroke-linecap="round" stroke-linejoin="round" stroke-width="6"/>
      </g>
    </g>
  </g>
</svg>
