<svg xmlns="http://www.w3.org/2000/svg" width="240.06" height="58.38" viewBox="0 0 240.06 58.38">
  <g id="logo-mybrand" transform="translate(12828 6965)">
    <g id="Grupo_632" data-name="Grupo 632" transform="translate(-12828 -6965)">
      <g id="Grupo_628" data-name="Grupo 628" transform="translate(0 0)">
        <g id="Grupo_626" data-name="Grupo 626" transform="translate(3.762 0.167)">
          <g id="Grupo_625" data-name="Grupo 625">
            <path id="Trazado_12" data-name="Trazado 12" d="M302.735,229.683a15.014,15.014,0,0,1,5.464,5.91,17.736,17.736,0,0,1,1.99,8.405,16.741,16.741,0,0,1-2.138,8.4,15.62,15.62,0,0,1-5.91,5.94,16.439,16.439,0,0,1-8.346,2.168,16.02,16.02,0,0,1-14.166-8.108,16.557,16.557,0,0,1-2.168-8.4V216.912a2.915,2.915,0,0,1,.862-2.2,3.016,3.016,0,0,1,5.2,2.2V232.95a14.956,14.956,0,0,1,19.216-3.267ZM299.17,253.71a10.438,10.438,0,0,0,3.8-4.009,11.7,11.7,0,0,0,1.4-5.7,11.537,11.537,0,0,0-1.4-5.673,10.5,10.5,0,0,0-3.8-3.98,10.373,10.373,0,0,0-14.523,3.98A11.715,11.715,0,0,0,283.281,244a11.883,11.883,0,0,0,1.367,5.7,10.471,10.471,0,0,0,14.523,4.009Z" transform="translate(-277.46 -213.883)" fill="#ffd400"/>
          </g>
        </g>
        <g id="Grupo_627" data-name="Grupo 627" transform="translate(26.82)">
          <path id="Trazado_13" data-name="Trazado 13" d="M324.824,220.7a.769.769,0,0,1-.226-.568v-2.087h-2.087a.759.759,0,0,1-.568-.233.8.8,0,0,1-.226-.576.771.771,0,0,1,.794-.794H324.6v-2.087a.75.75,0,0,1,.242-.56.783.783,0,0,1,1.347.56v2.087h2.087a.79.79,0,0,1,.568.233.769.769,0,0,1,.241.576.752.752,0,0,1-.241.561.792.792,0,0,1-.568.233h-2.087v2.087a.8.8,0,0,1-1.362.568Z" transform="translate(-321.717 -213.563)"/>
        </g>
        <rect id="Rectángulo_1552" data-name="Rectángulo 1552" width="34.919" height="5.071" transform="translate(0 53.308)"/>
      </g>
      <g id="Grupo_629" data-name="Grupo 629" transform="translate(54.269 10.786)">
        <path id="Trazado_14" data-name="Trazado 14" d="M408.879,260.157v12.371H407.54v-12.29c0-5.029-2.6-7.665-7.017-7.665-5.07,0-8.234,3.407-8.234,8.6v11.357h-1.338v-12.29c0-5.029-2.6-7.665-6.976-7.665-5.11,0-8.234,3.407-8.234,8.6v11.357H374.4v-21.05h1.3v5.07c1.3-3.2,4.258-5.232,8.355-5.232,4.015,0,6.935,1.947,7.869,5.719,1.217-3.407,4.339-5.719,8.679-5.719C405.675,251.315,408.879,254.357,408.879,260.157Z" transform="translate(-374.403 -242.433)" fill="#161615"/>
        <path id="Trazado_15" data-name="Trazado 15" d="M467.651,251.627l-11.033,24.214c-1.622,3.651-3.609,4.827-6.206,4.827a6.2,6.2,0,0,1-4.7-1.866l.771-1.054a4.961,4.961,0,0,0,3.934,1.744c2.028,0,3.529-.933,4.908-3.975l1.338-2.88-9.572-21.01h1.46l8.842,19.509,8.842-19.509Z" transform="translate(-408.558 -242.582)" fill="#161615"/>
        <path id="Trazado_16" data-name="Trazado 16" d="M517.583,253.451c0,6.855-4.746,11.235-10.87,11.235a8.478,8.478,0,0,1-6.854-2.839v2.515h-6.044v-30.1h6.328v10.586a8.471,8.471,0,0,1,6.571-2.636C512.838,242.216,517.583,246.6,517.583,253.451Zm-6.408,0c0-3.772-2.393-6.043-5.557-6.043s-5.556,2.271-5.556,6.043,2.393,6.044,5.556,6.044S511.175,257.223,511.175,253.451Z" transform="translate(-431.602 -234.266)" fill="#ffd100"/>
        <path id="Trazado_17" data-name="Trazado 17" d="M561.074,249.525v5.84c-.527-.04-.933-.081-1.419-.081-3.489,0-5.8,1.907-5.8,6.084v10.3h-6.328V249.85h6.044v2.88C555.112,250.62,557.707,249.525,561.074,249.525Z" transform="translate(-457.33 -241.575)" fill="#ffd100"/>
        <path id="Trazado_18" data-name="Trazado 18" d="M601.033,249.85v21.821h-6.044v-2.515A8.393,8.393,0,0,1,588.175,272c-6.165,0-10.91-4.381-10.91-11.235s4.745-11.235,10.91-11.235a8.381,8.381,0,0,1,6.53,2.636V249.85Zm-6.206,10.91c0-3.772-2.434-6.043-5.556-6.043-3.164,0-5.6,2.271-5.6,6.043s2.434,6.044,5.6,6.044C592.394,266.8,594.827,264.532,594.827,260.76Z" transform="translate(-471.575 -241.575)" fill="#ffd100"/>
        <path id="Trazado_19" data-name="Trazado 19" d="M656.4,259.178v12.492h-6.327V260.152c0-3.529-1.623-5.152-4.421-5.152-3.042,0-5.232,1.866-5.232,5.882v10.789H634.09V249.85h6.043V252.4a9.554,9.554,0,0,1,7.22-2.88C652.5,249.525,656.4,252.526,656.4,259.178Z" transform="translate(-498.794 -241.575)" fill="#ffd100"/>
        <path id="Trazado_20" data-name="Trazado 20" d="M709.156,234.266v30.1h-6.044v-2.515a8.393,8.393,0,0,1-6.814,2.839c-6.165,0-10.911-4.38-10.911-11.235s4.746-11.235,10.911-11.235a8.381,8.381,0,0,1,6.53,2.636V234.266Zm-6.206,19.185c0-3.772-2.434-6.043-5.557-6.043-3.164,0-5.6,2.271-5.6,6.043s2.434,6.044,5.6,6.044C700.517,259.494,702.951,257.223,702.951,253.451Z" transform="translate(-523.366 -234.266)" fill="#ffd100"/>
      </g>
      <g id="Grupo_631" data-name="Grupo 631" transform="translate(105.047 47.85)">
        <g id="Grupo_630" data-name="Grupo 630">
          <path id="Trazado_21" data-name="Trazado 21" d="M481.476,312.526v3.416h-.56v-3.371c0-1.322-.684-2.017-1.826-2.017a2.056,2.056,0,0,0-2.139,2.274v3.114h-.56v-3.371c0-1.322-.684-2.017-1.826-2.017a2.056,2.056,0,0,0-2.139,2.274v3.114h-.56v-5.847h.538v1.255a2.32,2.32,0,0,1,2.24-1.3,2.071,2.071,0,0,1,2.139,1.411,2.468,2.468,0,0,1,2.364-1.411A2.193,2.193,0,0,1,481.476,312.526Z" transform="translate(-471.866 -307.63)" fill="#161615"/>
          <path id="Trazado_22" data-name="Trazado 22" d="M499.8,310.136v5.847h-.538v-1.255a2.3,2.3,0,0,1-2.206,1.3,2.237,2.237,0,0,1-2.442-2.475v-3.417h.56v3.372a1.779,1.779,0,0,0,1.927,2.016,2.056,2.056,0,0,0,2.139-2.274v-3.114Z" transform="translate(-482.762 -307.672)" fill="#161615"/>
          <path id="Trazado_23" data-name="Trazado 23" d="M507.9,313.018a2.85,2.85,0,0,1,2.957-2.968,2.565,2.565,0,0,1,2.218,1.076l-.415.3a2.135,2.135,0,0,0-1.8-.874,2.466,2.466,0,0,0,0,4.929,2.133,2.133,0,0,0,1.8-.874l.415.3a2.593,2.593,0,0,1-2.218,1.075A2.856,2.856,0,0,1,507.9,313.018Z" transform="translate(-489.126 -307.63)" fill="#161615"/>
          <path id="Trazado_24" data-name="Trazado 24" d="M526.1,310.3v3.416h-.56v-3.371a1.771,1.771,0,0,0-1.893-2.017,2.086,2.086,0,0,0-2.218,2.274v3.114h-.56v-8.311h.56v3.686a2.417,2.417,0,0,1,2.3-1.266A2.22,2.22,0,0,1,526.1,310.3Z" transform="translate(-495.336 -305.406)" fill="#161615"/>
          <path id="Trazado_25" data-name="Trazado 25" d="M550.469,312.526v3.416h-.56v-3.371c0-1.322-.683-2.017-1.826-2.017a2.056,2.056,0,0,0-2.14,2.274v3.114h-.56v-3.371c0-1.322-.683-2.017-1.826-2.017a2.056,2.056,0,0,0-2.139,2.274v3.114h-.561v-5.847h.538v1.255a2.32,2.32,0,0,1,2.24-1.3,2.071,2.071,0,0,1,2.14,1.411,2.468,2.468,0,0,1,2.363-1.411A2.193,2.193,0,0,1,550.469,312.526Z" transform="translate(-504.913 -307.63)" fill="#161615"/>
          <path id="Trazado_26" data-name="Trazado 26" d="M562.531,313.018a2.924,2.924,0,1,1,2.923,2.969A2.848,2.848,0,0,1,562.531,313.018Zm5.276,0a2.355,2.355,0,1,0-2.352,2.465A2.32,2.32,0,0,0,567.807,313.018Z" transform="translate(-515.295 -307.63)" fill="#161615"/>
          <path id="Trazado_27" data-name="Trazado 27" d="M579.852,310.05v.55c-.045,0-.09-.011-.134-.011a2.018,2.018,0,0,0-2.072,2.307v3.047h-.561v-5.847h.538v1.277A2.219,2.219,0,0,1,579.852,310.05Z" transform="translate(-522.266 -307.63)" fill="#161615"/>
          <path id="Trazado_28" data-name="Trazado 28" d="M588.936,314.665l.325.37a2.782,2.782,0,0,1-2.207.952,2.88,2.88,0,0,1-3.024-2.969,2.8,2.8,0,0,1,2.845-2.968,2.723,2.723,0,0,1,2.745,2.722l-4.94.963a2.52,2.52,0,0,0,4.257.929Zm-4.357-1.692c0,.112.011.235.022.347l4.459-.873a2.181,2.181,0,0,0-2.185-1.905A2.273,2.273,0,0,0,584.579,312.973Z" transform="translate(-525.593 -307.63)" fill="#161615"/>
          <path id="Trazado_29" data-name="Trazado 29" d="M606.276,314.44a1.776,1.776,0,0,1-1.2.414,1.45,1.45,0,0,1-1.591-1.591v-5.578h.56v1.277h1.86v.482h-1.86v3.763c0,.751.37,1.165,1.086,1.165a1.347,1.347,0,0,0,.908-.325Z" transform="translate(-534.913 -306.498)" fill="#161615"/>
          <path id="Trazado_30" data-name="Trazado 30" d="M617.06,310.3v3.416H616.5v-3.371a1.771,1.771,0,0,0-1.893-2.017,2.086,2.086,0,0,0-2.218,2.274v3.114h-.56v-8.311h.56v3.686a2.418,2.418,0,0,1,2.3-1.266A2.22,2.22,0,0,1,617.06,310.3Z" transform="translate(-538.909 -305.406)" fill="#161615"/>
          <path id="Trazado_31" data-name="Trazado 31" d="M630.931,310.095v5.847h-.55v-1.378a2.592,2.592,0,0,1-2.4,1.423,2.969,2.969,0,0,1,0-5.937,2.619,2.619,0,0,1,2.385,1.4v-1.356Zm-.561,2.923a2.355,2.355,0,1,0-2.352,2.465A2.32,2.32,0,0,0,630.37,313.018Z" transform="translate(-545.263 -307.63)" fill="#161615"/>
          <path id="Trazado_32" data-name="Trazado 32" d="M646.062,312.526v3.416h-.56v-3.371a1.771,1.771,0,0,0-1.893-2.017,2.086,2.086,0,0,0-2.217,2.274v3.114h-.561v-5.847h.538v1.266a2.412,2.412,0,0,1,2.318-1.311A2.22,2.22,0,0,1,646.062,312.526Z" transform="translate(-552.801 -307.63)" fill="#161615"/>
          <path id="Trazado_33" data-name="Trazado 33" d="M665.437,310.095v5.847h-.549v-1.378a2.594,2.594,0,0,1-2.4,1.423,2.969,2.969,0,0,1,0-5.937,2.621,2.621,0,0,1,2.387,1.4v-1.356Zm-.56,2.923a2.355,2.355,0,1,0-2.353,2.465A2.32,2.32,0,0,0,664.877,313.018Z" transform="translate(-561.792 -307.63)" fill="#161615"/>
          <path id="Trazado_34" data-name="Trazado 34" d="M680.864,312.183v-6.777h.56v6.709c0,.751.337,1.165,1.031,1.165a1.5,1.5,0,0,0,.56-.112l.045.47a1.924,1.924,0,0,1-.672.123A1.413,1.413,0,0,1,680.864,312.183Z" transform="translate(-571.977 -305.406)" fill="#161615"/>
          <path id="Trazado_35" data-name="Trazado 35" d="M685.831,313.018a2.924,2.924,0,1,1,2.923,2.969A2.848,2.848,0,0,1,685.831,313.018Zm5.276,0a2.355,2.355,0,1,0-2.353,2.465A2.32,2.32,0,0,0,691.107,313.018Z" transform="translate(-574.356 -307.63)" fill="#161615"/>
          <path id="Trazado_36" data-name="Trazado 36" d="M705.063,310.095v5.22c0,1.959-.952,2.845-2.834,2.845a3.861,3.861,0,0,1-2.677-.931l.3-.425a3.467,3.467,0,0,0,2.363.851,1.986,1.986,0,0,0,2.285-2.274V314.4a2.7,2.7,0,0,1-2.43,1.333,2.841,2.841,0,1,1,0-5.679,2.681,2.681,0,0,1,2.453,1.367v-1.322Zm-.549,2.789a2.392,2.392,0,1,0-2.4,2.341A2.271,2.271,0,0,0,704.514,312.884Z" transform="translate(-580.741 -307.63)" fill="#161615"/>
          <path id="Trazado_37" data-name="Trazado 37" d="M713.823,313.018a2.924,2.924,0,1,1,2.924,2.969A2.848,2.848,0,0,1,713.823,313.018Zm5.276,0a2.355,2.355,0,1,0-2.352,2.465A2.319,2.319,0,0,0,719.1,313.018Z" transform="translate(-587.764 -307.63)" fill="#161615"/>
        </g>
      </g>
    </g>
  </g>
</svg>
